<svg xmlns="http://www.w3.org/2000/svg" viewBox="0 0 175 175" role="img" aria-label="Apache Airflow">
  <path fill="#017cee" d="m4.186 172.44 82.21-84.271c.515-.528.614-1.345.184-1.944-5-6.98-14.224-8.19-17.642-12.88C58.81 59.451 56.24 51.588 51.888 52.076c-.303.034-.574.198-.788.416L21.401 82.937C4.316 100.45 1.866 139.01 1.417 171.298c-.02 1.459 1.75 2.186 2.769 1.142"/>
  <path fill="#00ad46" d="m172.44 170.357-84.271-82.21c-.528-.515-1.345-.614-1.944-.185-6.98 5.001-8.19 14.224-12.88 17.643-13.893 10.127-21.756 12.697-21.268 17.049.034.304.198.575.416.788l30.444 29.699c17.513 17.085 56.073 19.535 88.361 19.984 1.459.021 2.186-1.749 1.142-2.768"/>
  <path fill="#04d659" d="M82.936 153.141c-9.566-9.332-14.005-27.795 4.335-65.868-29.806 13.32-40.252 30.83-35.113 35.843z"/>
  <path fill="#00c7d4" d="m170.355 2.105-82.21 84.271c-.515.528-.614 1.344-.184 1.944 5 6.98 14.224 8.19 17.642 12.88 10.128 13.892 12.698 21.755 17.049 21.268.304-.034.575-.198.789-.417l29.698-30.443c17.086-17.514 19.536-56.073 19.985-88.362.02-1.459-1.75-2.186-2.769-1.141"/>
  <path fill="#11e1ee" d="M153.14 91.608c-9.333 9.566-27.796 14.005-65.87-4.336 13.321 29.807 30.831 40.253 35.844 35.114z"/>
  <path fill="#e43921" d="m2.103 4.187 84.272 82.21c.527.515 1.344.614 1.943.185 6.98-5.001 8.19-14.224 12.88-17.643 13.893-10.127 21.756-12.697 21.268-17.049-.034-.304-.198-.575-.416-.788L91.606 21.403C74.093 4.318 35.533 1.868 3.245 1.419c-1.46-.02-2.186 1.75-1.142 2.768"/>
  <path fill="#ff7557" d="M91.606 21.403c9.566 9.332 14.005 27.795-4.335 65.868 29.806-13.32 40.252-30.83 35.113-35.843z"/>
  <path fill="#0cb6ff" d="M21.403 82.937c9.332-9.567 27.795-14.005 65.868 4.335-13.32-29.807-30.83-40.252-35.843-35.114z"/>
  <circle cx="87.284" cy="87.261" r="3.676" fill="#4a4848"/>
</svg>
