<svg xmlns="http://www.w3.org/2000/svg" viewBox="0 0 24 24">
  <defs>
    <style>
      .icon {
        fill: none;
        stroke: currentColor;
        stroke-width: 1.8;
        stroke-linecap: round;
        stroke-linejoin: round;
      }
    </style>
  </defs>
  <symbol id="icon-user" viewBox="0 0 24 24">
    <circle class="icon" cx="12" cy="8.5" r="3.5"/>
    <path class="icon" d="M5 19c1.8-3.2 4.2-4.8 7-4.8s5.2 1.6 7 4.8"/>
  </symbol>
  <symbol id="icon-edit" viewBox="0 0 24 24">
    <path class="icon" d="M4 20h4l10.5-10.5a1.8 1.8 0 0 0 0-2.5l-1.5-1.5a1.8 1.8 0 0 0-2.5 0L4 16v4z"/>
    <path class="icon" d="M13 7l4 4"/>
  </symbol>
  <symbol id="icon-compass" viewBox="0 0 24 24">
    <circle class="icon" cx="12" cy="12" r="8"/>
    <path class="icon" d="M14.8 9.2 10 10l-.8 4.8 4.8-.8z"/>
  </symbol>
  <symbol id="icon-chevron-right" viewBox="0 0 24 24">
    <path class="icon" d="m9 6 6 6-6 6"/>
  </symbol>
  <symbol id="icon-arrow-right" viewBox="0 0 24 24">
    <path class="icon" d="M5 12h13"/>
    <path class="icon" d="m13 6 6 6-6 6"/>
  </symbol>
  <symbol id="icon-clock" viewBox="0 0 24 24">
    <circle class="icon" cx="12" cy="12" r="8"/>
    <path class="icon" d="M12 8v4l2.8 1.8"/>
  </symbol>
  <symbol id="icon-rss" viewBox="0 0 24 24">
    <path class="icon" d="M5 19a1 1 0 1 0 0.001 0z"/>
    <path class="icon" d="M5 13a6 6 0 0 1 6 6"/>
    <path class="icon" d="M5 7a12 12 0 0 1 12 12"/>
  </symbol>
  <symbol id="icon-camera" viewBox="0 0 24 24">
    <rect class="icon" x="4" y="7" width="16" height="11" rx="2"/>
    <path class="icon" d="M9 7 10.5 5h3L15 7"/>
    <circle class="icon" cx="12" cy="12.5" r="3"/>
  </symbol>
  <symbol id="icon-camp" viewBox="0 0 24 24">
    <path class="icon" d="M5 18h14"/>
    <path class="icon" d="M7 18 12 8l5 10"/>
    <path class="icon" d="M9.2 18 12 13.2 14.8 18"/>
  </symbol>
  <symbol id="icon-tv" viewBox="0 0 24 24">
    <rect class="icon" x="4" y="7" width="16" height="11" rx="2"/>
    <path class="icon" d="M9 5 12 7 15 5"/>
  </symbol>
  <symbol id="icon-book" viewBox="0 0 24 24">
    <path class="icon" d="M6 5h6a3 3 0 0 1 3 3v11a2 2 0 0 0-2-2H6z"/>
    <path class="icon" d="M18 5h-6a3 3 0 0 0-3 3v11a2 2 0 0 1 2-2h7z"/>
  </symbol>
  <symbol id="icon-guitar" viewBox="0 0 24 24">
    <path class="icon" d="M13 4 9 8l3 3-1.2 1.2a3.8 3.8 0 1 0 5.4 5.4L18 16l-3-3 4-4"/>
    <circle class="icon" cx="8.2" cy="15.8" r="1.1"/>
    <circle class="icon" cx="10.3" cy="13.7" r="1.1"/>
  </symbol>
  <symbol id="icon-lock" viewBox="0 0 24 24">
    <rect class="icon" x="6" y="11" width="12" height="9" rx="2"/>
    <path class="icon" d="M8 11V8a4 4 0 0 1 8 0v3"/>
  </symbol>
  <symbol id="icon-branch" viewBox="0 0 24 24">
    <circle class="icon" cx="7" cy="6" r="1.5"/>
    <circle class="icon" cx="7" cy="18" r="1.5"/>
    <circle class="icon" cx="17" cy="10" r="1.5"/>
    <path class="icon" d="M7 7v8"/>
    <path class="icon" d="M7 10c4 0 4 4 10 4"/>
  </symbol>
</svg>
